<svg xmlns="http://www.w3.org/2000/svg" width="960" height="340" viewBox="0 0 960 340" role="img" aria-label="Peak aggregate throughput">
<style>
text{font-family:Inter,Segoe UI,Arial,sans-serif;fill:#0f172a} .sub{fill:#475569}.axis{fill:#94a3b8}.small{font-size:13px}.label{font-size:15px;font-weight:600}.title{font-size:28px;font-weight:800}.value{font-size:14px;font-weight:700}.note{font-size:12px;fill:#64748b}
</style>
<rect width="100%" height="100%" fill="#ffffff"/>
<rect x="18" y="18" width="924" height="304" rx="8" fill="#f8fafc" stroke="#e2e8f0"/>
<text x="44" y="54" class="title">Peak aggregate throughput</text>
<text x="44" y="78" class="sub small">Best observed concurrency per refreshed homelab run. Higher is better.</text>
<text x="44" y="116" class="label">vllm (Qwen3-8B-FP8)</text>
<text x="44" y="136" class="note">c=16 ok=200 model=Qwen/Qwen3-8B-FP8</text>
<rect x="250" y="101" width="666" height="24" rx="4" fill="#e2e8f0"/>
<rect x="250" y="101" width="666.0" height="24" rx="4" fill="#2563eb"/>
<text x="804.0" y="119" class="value">1214.90 tok/s</text>
<text x="44" y="180" class="label">TensorRT-LLM engine (Qwen3-4B)</text>
<text x="44" y="200" class="note">c=16 ok=50 model=Qwen/Qwen3-4B</text>
<rect x="250" y="165" width="666" height="24" rx="4" fill="#e2e8f0"/>
<rect x="250" y="165" width="541.5" height="24" rx="4" fill="#7c3aed"/>
<text x="801.5" y="183" class="value">987.80 tok/s</text>
<text x="44" y="244" class="label">sglang (Qwen3-8B-FP8)</text>
<text x="44" y="264" class="note">c=16 ok=50 model=Qwen/Qwen3-8B-FP8</text>
<rect x="250" y="229" width="666" height="24" rx="4" fill="#e2e8f0"/>
<rect x="250" y="229" width="450.1" height="24" rx="4" fill="#059669"/>
<text x="710.1" y="247" class="value">821.00 tok/s</text>
</svg>
